<svg xmlns="http://www.w3.org/2000/svg" width="50" height="50" viewBox="0 0 50 50" fill="none">
  <path d="M16.4062 17.9688H21.5514L25 21.4174L28.4486 17.9688H33.5938C34.2151 17.968 34.8109 17.7209 35.2502 17.2815C35.6896 16.8421 35.9368 16.2464 35.9375 15.625V3.90625C35.9368 3.28487 35.6896 2.68914 35.2502 2.24975C34.8109 1.81037 34.2151 1.56321 33.5938 1.5625H16.4062C15.7849 1.56321 15.1891 1.81037 14.7498 2.24975C14.3104 2.68914 14.0632 3.28487 14.0625 3.90625V15.625C14.0632 16.2464 14.3104 16.8421 14.7498 17.2815C15.1891 17.7209 15.7849 17.968 16.4062 17.9688ZM15.625 3.90625C15.6252 3.69912 15.7076 3.50055 15.8541 3.35408C16.0005 3.20762 16.1991 3.12524 16.4062 3.125H33.5938C33.8009 3.12524 33.9995 3.20762 34.1459 3.35408C34.2924 3.50055 34.3748 3.69912 34.375 3.90625V15.625C34.3748 15.8321 34.2924 16.0307 34.1459 16.1772C33.9995 16.3236 33.8009 16.406 33.5938 16.4063H27.8014L25 19.2076L22.1986 16.4063H16.4062C16.1991 16.406 16.0005 16.3236 15.8541 16.1772C15.7076 16.0307 15.6252 15.8321 15.625 15.625V3.90625Z" fill="white"/>
  <path d="M31.457 34.662L27.3272 33.2855C28.0448 32.8758 28.6412 32.2835 29.0558 31.5686C29.4704 30.8538 29.6883 30.042 29.6875 29.2157V27.6445C29.6875 26.4013 29.1936 25.209 28.3146 24.33C27.4355 23.4509 26.2432 22.957 25 22.957C23.7568 22.957 22.5645 23.4509 21.6854 24.33C20.8064 25.209 20.3125 26.4013 20.3125 27.6445V29.2157C20.3117 30.042 20.5296 30.8538 20.9442 31.5686C21.3588 32.2835 21.9552 32.8758 22.6728 33.2855L18.5431 34.662C17.9205 34.8689 17.379 35.2667 16.9954 35.7989C16.6118 36.3311 16.4056 36.9707 16.4063 37.6267V48.4374H17.9688V37.6267C17.9684 37.2987 18.0715 36.9789 18.2633 36.7128C18.4551 36.4467 18.7259 36.2478 19.0372 36.1443L25 34.1567L30.9629 36.1443C31.2741 36.2478 31.5449 36.4467 31.7367 36.7128C31.9285 36.9789 32.0316 37.2987 32.0313 37.6267V48.4374H33.5938V37.6267C33.5944 36.9707 33.3882 36.3311 33.0046 35.7989C32.621 35.2667 32.0795 34.8689 31.457 34.662ZM25.9882 32.1803L25 32.5097L24.0118 32.1804C23.3892 31.9735 22.8477 31.5757 22.4641 31.0434C22.0805 30.5112 21.8744 29.8717 21.875 29.2157V27.6445C21.875 26.8157 22.2042 26.0209 22.7903 25.4348C23.3763 24.8488 24.1712 24.5195 25 24.5195C25.8288 24.5195 26.6237 24.8488 27.2097 25.4348C27.7958 26.0209 28.125 26.8157 28.125 27.6445V29.2157C28.1256 29.8717 27.9195 30.5112 27.5359 31.0434C27.1523 31.5756 26.6108 31.9735 25.9882 32.1803Z" fill="white"/>
  <path d="M28.9062 39.0625H30.4688V48.4375H28.9062V39.0625Z" fill="white"/>
  <path d="M19.5312 39.0625H21.0938V48.4375H19.5312V39.0625Z" fill="white"/>
  <path d="M46.8947 37.9543L44.3226 37.019C44.8654 36.6631 45.3115 36.178 45.6206 35.6072C45.9297 35.0364 46.0923 34.3978 46.0938 33.7487V33.1814C46.0962 32.4554 45.8952 31.7433 45.5135 31.1258C45.1319 30.5083 44.5848 30.01 43.9344 29.6875C43.3916 29.4177 42.7937 29.2773 42.1875 29.2773C41.5813 29.2773 40.9833 29.4177 40.4405 29.6875C39.7901 30.01 39.2431 30.5083 38.8614 31.1258C38.4798 31.7433 38.2788 32.4554 38.2812 33.1814V33.7487C38.2827 34.3978 38.4453 35.0364 38.7544 35.6072C39.0635 36.178 39.5096 36.6631 40.0524 37.019L37.4803 37.9543C37.0287 38.1196 36.6387 38.4194 36.3628 38.8132C36.087 39.2071 35.9385 39.6761 35.9375 40.157V48.4375H37.5V40.157C37.5003 39.9967 37.5498 39.8403 37.6418 39.7091C37.7337 39.5778 37.8637 39.4778 38.0143 39.4227L42.1875 37.9052L46.3607 39.4227C46.5113 39.4778 46.6413 39.5778 46.7332 39.7091C46.8252 39.8403 46.8747 39.9967 46.875 40.157V48.4375H48.4375V40.157C48.4365 39.6761 48.288 39.2071 48.0122 38.8132C47.7363 38.4194 47.3463 38.1196 46.8947 37.9543ZM42.9885 35.9513L42.1875 36.2426L41.3865 35.9513C40.935 35.786 40.5449 35.4862 40.2691 35.0924C39.9932 34.6985 39.8448 34.2296 39.8438 33.7487V33.1814C39.8438 32.5598 40.0907 31.9636 40.5302 31.5241C40.9698 31.0846 41.5659 30.8376 42.1875 30.8376C42.8091 30.8376 43.4052 31.0846 43.8448 31.5241C44.2843 31.9636 44.5312 32.5598 44.5312 33.1814V33.7487C44.5302 34.2296 44.3818 34.6985 44.1059 35.0924C43.8301 35.4862 43.44 35.786 42.9885 35.9513Z" fill="white"/>
  <path d="M43.75 42.1875H45.3125V48.4375H43.75V42.1875Z" fill="white"/>
  <path d="M39.0625 42.1875H40.625V48.4375H39.0625V42.1875Z" fill="white"/>
  <path d="M12.5197 37.9543L9.94759 37.019C10.4904 36.6631 10.9365 36.178 11.2456 35.6072C11.5547 35.0364 11.7173 34.3978 11.7188 33.7487V33.1814C11.7212 32.4554 11.5202 31.7433 11.1385 31.1258C10.7569 30.5083 10.2098 30.01 9.55944 29.6875C9.01661 29.4177 8.41866 29.2773 7.81248 29.2773C7.20629 29.2773 6.60835 29.4177 6.06551 29.6875C5.41512 30.01 4.86809 30.5083 4.48644 31.1258C4.1048 31.7433 3.9038 32.4554 3.90625 33.1814V33.7487C3.9077 34.3978 4.07028 35.0364 4.37941 35.6072C4.68854 36.178 5.13455 36.6631 5.67741 37.019L3.10531 37.9543C2.65374 38.1196 2.26372 38.4194 1.98785 38.8132C1.71197 39.2071 1.56352 39.6761 1.5625 40.157V48.4375H3.125V40.157C3.12533 39.9967 3.17481 39.8403 3.26677 39.7091C3.35873 39.5778 3.48874 39.4778 3.63927 39.4227L7.8125 37.9052L11.9857 39.4227C12.1363 39.4778 12.2663 39.5778 12.3582 39.7091C12.4502 39.8403 12.4997 39.9967 12.5 40.157V48.4375H14.0625V40.157C14.0615 39.6761 13.913 39.2071 13.6372 38.8132C13.3613 38.4194 12.9713 38.1196 12.5197 37.9543ZM8.61349 35.9513L7.8125 36.2426L7.01151 35.9513C6.55996 35.786 6.16995 35.4862 5.89409 35.0924C5.61822 34.6985 5.46977 34.2296 5.46875 33.7487V33.1814C5.46875 32.5598 5.71568 31.9636 6.15522 31.5241C6.59476 31.0846 7.1909 30.8376 7.8125 30.8376C8.4341 30.8376 9.03024 31.0846 9.46978 31.5241C9.90932 31.9636 10.1562 32.5598 10.1562 33.1814V33.7487C10.1552 34.2296 10.0068 34.6985 9.73091 35.0924C9.45505 35.4862 9.06504 35.786 8.61349 35.9513Z" fill="white"/>
  <path d="M9.375 42.1875H10.9375V48.4375H9.375V42.1875Z" fill="white"/>
  <path d="M4.6875 42.1875H6.25V48.4375H4.6875V42.1875Z" fill="white"/>
  <path d="M10.9375 21.0938V18.75H13.2812V17.1875H10.9375V14.8438H9.375V17.1875H7.03125V18.75H9.375V21.0938H10.9375Z" fill="white"/>
  <path d="M23.4375 9.69854L25.7813 12.0423L30.4688 7.35479V9.375H32.0313V4.6875H27.3438V6.25H29.364L25.7813 9.83272L23.4375 7.48896L17.4163 13.5101L18.5212 14.6149L23.4375 9.69854Z" fill="white"/>
  <path d="M3.90625 25H7.42188L10.1562 28.6458L12.8906 25H16.4062C17.0276 24.9993 17.6234 24.7521 18.0627 24.3127C18.5021 23.8734 18.7493 23.2776 18.75 22.6562V19.5312H17.1875V22.6562C17.1873 22.8634 17.1049 23.062 16.9584 23.2084C16.812 23.3549 16.6134 23.4373 16.4062 23.4375H12.1094L10.1562 26.0417L8.20312 23.4375H3.90625C3.69912 23.4373 3.50055 23.3549 3.35408 23.2084C3.20762 23.062 3.12524 22.8634 3.125 22.6562V13.2812C3.12524 13.0741 3.20762 12.8755 3.35408 12.7291C3.50055 12.5826 3.69912 12.5002 3.90625 12.5H12.5V10.9375H3.90625C3.28487 10.9382 2.68914 11.1854 2.24975 11.6248C1.81037 12.0641 1.56321 12.6599 1.5625 13.2812V22.6562C1.56321 23.2776 1.81037 23.8734 2.24975 24.3127C2.68914 24.7521 3.28487 24.9993 3.90625 25Z" fill="white"/>
  <path d="M39.0625 21.0938H40.625V18.75H42.9688V17.1875H40.625V14.8438H39.0625V17.1875H36.7188V18.75H39.0625V21.0938Z" fill="white"/>
  <path d="M46.0938 10.9375H37.5V12.5H46.0938C46.3009 12.5002 46.4995 12.5826 46.6459 12.7291C46.7924 12.8755 46.8748 13.0741 46.875 13.2812V22.6562C46.8748 22.8634 46.7924 23.062 46.6459 23.2084C46.4995 23.3549 46.3009 23.4373 46.0938 23.4375H41.7969L39.8438 26.0417L37.8906 23.4375H33.5938C33.3866 23.4373 33.188 23.3549 33.0416 23.2084C32.8951 23.062 32.8127 22.8634 32.8125 22.6562V19.5312H31.25V22.6562C31.2507 23.2776 31.4979 23.8734 31.9373 24.3127C32.3766 24.7521 32.9724 24.9993 33.5938 25H37.1094L39.8438 28.6458L42.5781 25H46.0938C46.7151 24.9993 47.3109 24.7521 47.7502 24.3127C48.1896 23.8734 48.4368 23.2776 48.4375 22.6562V13.2812C48.4368 12.6599 48.1896 12.0641 47.7502 11.6248C47.3109 11.1854 46.7151 10.9382 46.0938 10.9375Z" fill="white"/>
</svg>