<svg xmlns="http://www.w3.org/2000/svg" width="50" height="50" viewBox="0 0 50 50" fill="none">
  <g clip-path="url(#clip0_155_9455)">
    <path d="M25 5.8335C22.3629 5.8335 19.785 6.61548 17.5924 8.08057C15.3997 9.54565 13.6907 11.628 12.6816 14.0644C11.6724 16.5007 11.4084 19.1816 11.9228 21.768C12.4373 24.3544 13.7072 26.7302 15.5719 28.5949C17.4366 30.4596 19.8123 31.7295 22.3988 32.244C24.9852 32.7584 27.6661 32.4944 30.1024 31.4852C32.5388 30.4761 34.6211 28.7671 36.0862 26.5744C37.5513 24.3818 38.3333 21.8039 38.3333 19.1668C38.3291 15.6319 36.923 12.2429 34.4234 9.74337C31.9239 7.24379 28.5349 5.83769 25 5.8335ZM25 30.8335C22.6925 30.8335 20.4369 30.1493 18.5183 28.8673C16.5997 27.5854 15.1044 25.7633 14.2214 23.6315C13.3383 21.4997 13.1073 19.1539 13.5575 16.8908C14.0076 14.6277 15.1188 12.5489 16.7504 10.9173C18.382 9.28564 20.4608 8.1745 22.7239 7.72433C24.987 7.27417 27.3328 7.50521 29.4646 8.38823C31.5964 9.27126 33.4185 10.7666 34.7004 12.6852C35.9824 14.6038 36.6666 16.8594 36.6666 19.1668C36.6633 22.26 35.4331 25.2255 33.2459 27.4128C31.0587 29.6 28.0931 30.8302 25 30.8335Z" fill="white"/>
    <path d="M28.2325 14.066L21.6667 20.6344C21.1842 20.2225 20.566 20.0046 19.9319 20.0228C19.2978 20.0409 18.6931 20.2939 18.235 20.7327C17.7663 21.2015 17.5031 21.8373 17.5031 22.5002C17.5031 23.1631 17.7663 23.7989 18.235 24.2677L19.9017 25.9344C20.3736 26.3975 21.0084 26.6569 21.6696 26.6569C22.3308 26.6569 22.9656 26.3975 23.4375 25.9344L31.7709 17.601C32.2262 17.1295 32.4782 16.498 32.4725 15.8425C32.4668 15.187 32.2039 14.56 31.7404 14.0965C31.2769 13.633 30.6498 13.37 29.9944 13.3644C29.3389 13.3587 28.7074 13.6106 28.2359 14.066H28.2325ZM30.5892 16.4227L22.2559 24.756C22.0974 24.9081 21.8863 24.993 21.6667 24.993C21.4471 24.993 21.236 24.9081 21.0775 24.756L19.4109 23.0894C19.2591 22.9322 19.1751 22.7217 19.177 22.5032C19.1789 22.2847 19.2665 22.0757 19.421 21.9212C19.5755 21.7667 19.7845 21.679 20.003 21.6771C20.2215 21.6752 20.432 21.7592 20.5892 21.911L21.0775 22.3994C21.2338 22.5556 21.4457 22.6434 21.6667 22.6434C21.8877 22.6434 22.0996 22.5556 22.2559 22.3994L29.4109 15.2444C29.568 15.0926 29.7785 15.0086 29.997 15.0105C30.2155 15.0124 30.4245 15.1 30.579 15.2545C30.7335 15.409 30.8212 15.618 30.8231 15.8365C30.825 16.055 30.741 16.2655 30.5892 16.4227Z" fill="white"/>
    <path d="M42.9 15.9401L41.1708 15.2501C40.7673 13.5755 40.1034 11.9746 39.2033 10.5059L39.935 8.79259C40.0779 8.4736 40.1286 8.12093 40.0811 7.77461C40.0337 7.4283 39.8901 7.10223 39.6667 6.83342C39.3625 6.46759 39.0133 6.08342 38.5492 5.60675C38.0892 5.15842 37.7042 4.80925 37.3475 4.51342C37.0785 4.28714 36.7515 4.14086 36.4035 4.09121C36.0556 4.04156 35.7007 4.09055 35.3792 4.23259L33.665 4.96509C32.1949 4.06552 30.5926 3.40244 28.9167 3.00009L28.225 1.26842C28.0968 0.945301 27.8828 0.663311 27.6062 0.452867C27.3295 0.242423 27.0006 0.111511 26.655 0.0742536C25.5569 -0.0241002 24.4522 -0.0241002 23.3542 0.0742536C23.0065 0.109925 22.6753 0.239957 22.3962 0.450286C22.1171 0.660615 21.9009 0.943237 21.7708 1.26759L21.0833 3.00009C19.4088 3.40377 17.8079 4.06768 16.3392 4.96759L14.625 4.23175C14.3062 4.08879 13.9536 4.03815 13.6074 4.08559C13.2612 4.13302 12.9353 4.27663 12.6667 4.50009C12.2992 4.80425 11.9167 5.15425 11.44 5.61675C10.9917 6.07675 10.6417 6.46175 10.3475 6.81842C10.1202 7.087 9.97322 7.41415 9.92326 7.76241C9.8733 8.11066 9.92242 8.46595 10.065 8.78759L10.7975 10.5018C9.89718 11.972 9.23273 13.5742 8.82832 15.2501L7.09666 15.9426C6.7742 16.0713 6.49303 16.2857 6.28346 16.5625C6.07389 16.8393 5.9439 17.1681 5.90749 17.5134C5.80916 18.6109 5.80916 19.7151 5.90749 20.8126C5.94262 21.1604 6.07245 21.4919 6.28285 21.7711C6.49325 22.0502 6.77616 22.2663 7.10082 22.3959L8.82916 23.0868C9.23372 24.7612 9.89787 26.3619 10.7975 27.8309L10.0658 29.5443C9.92345 29.8627 9.87305 30.2147 9.92032 30.5604C9.9676 30.906 10.1107 31.2315 10.3333 31.5001C10.6375 31.8676 10.9875 32.2501 11.4508 32.7268C11.91 33.1751 12.295 33.5251 12.6517 33.8201C12.6808 33.8451 12.7167 33.8576 12.7475 33.8809L8.54082 43.5576C8.37624 43.9481 8.31084 44.3733 8.35045 44.7952C8.39007 45.2171 8.53347 45.6227 8.76787 45.9757C9.00227 46.3288 9.32038 46.6183 9.69386 46.8186C10.0673 47.0188 10.4846 47.1236 10.9083 47.1234H14.4833C14.5287 47.1229 14.5737 47.1314 14.6158 47.1484C14.6578 47.1654 14.6961 47.1907 14.7283 47.2226L16.7608 49.2501C17.0565 49.5455 17.4197 49.7645 17.819 49.8881C18.2184 50.0117 18.6418 50.0362 19.0527 49.9595C19.4636 49.8828 19.8496 49.7072 20.1774 49.4478C20.5053 49.1885 20.765 48.8532 20.9342 48.4709L25 39.5143L29.0617 48.4559C29.2285 48.8403 29.4869 49.178 29.8143 49.4395C30.1417 49.701 30.5282 49.8783 30.94 49.9559C31.0971 49.9857 31.2567 50.0005 31.4167 50.0001C32.0982 50.0008 32.7522 49.7311 33.235 49.2501L35.2708 47.2226C35.336 47.1596 35.4235 47.1248 35.5142 47.1259H39.0892C39.5137 47.1261 39.9317 47.021 40.3057 46.8201C40.6797 46.6191 40.998 46.3286 41.2323 45.9745C41.4665 45.6204 41.6093 45.2138 41.6479 44.791C41.6864 44.3682 41.6196 43.9424 41.4533 43.5518L37.2442 33.8868C37.2725 33.8651 37.3075 33.8534 37.335 33.8301C37.7008 33.5259 38.085 33.1768 38.5617 32.7126C39.01 32.2526 39.3592 31.8676 39.655 31.5109C39.8818 31.2423 40.0284 30.9152 40.0781 30.5671C40.1278 30.219 40.0785 29.864 39.9358 29.5426L39.2033 27.8284C40.1034 26.3595 40.7674 24.7583 41.1708 23.0834L42.9025 22.3918C43.2249 22.2629 43.5062 22.0485 43.7158 21.7717C43.9255 21.495 44.0557 21.1662 44.0925 20.8209C44.1455 20.2712 44.1702 19.719 44.1667 19.1668C44.1702 18.6158 44.1455 18.0651 44.0925 17.5168C44.0557 17.1704 43.9253 16.8406 43.7152 16.5628C43.5051 16.285 43.2233 16.0697 42.9 15.9401ZM19.4108 47.7893C19.3516 47.9247 19.2603 48.0436 19.1446 48.1356C19.029 48.2277 18.8926 48.29 18.7473 48.3173C18.6021 48.3446 18.4524 48.3359 18.3112 48.2921C18.1701 48.2483 18.0418 48.1707 17.9375 48.0659L15.9067 46.0434C15.5277 45.6689 15.0161 45.4593 14.4833 45.4601H10.9083C10.7595 45.4608 10.6128 45.4242 10.4818 45.3536C10.3508 45.283 10.2396 45.1806 10.1583 45.0559C10.0754 44.9345 10.0244 44.7941 10.0098 44.6478C9.99525 44.5015 10.0177 44.3538 10.075 44.2184L14.4517 34.1501C14.5092 34.1318 14.5675 34.1268 14.6242 34.1026L16.3383 33.3701C17.8073 34.2701 19.4085 34.934 21.0833 35.3376L21.775 37.0701C21.9041 37.3923 22.1186 37.6732 22.3953 37.8827C22.6721 38.0922 23.0007 38.2224 23.3458 38.2593C23.4683 38.2718 23.6008 38.2776 23.7283 38.2868L19.4108 47.7893ZM39.9242 44.2059C39.9818 44.3431 40.0046 44.4924 39.9905 44.6405C39.9764 44.7887 39.9258 44.931 39.8433 45.0548C39.7607 45.1786 39.6488 45.28 39.5175 45.35C39.3862 45.42 39.2396 45.4564 39.0908 45.4559H35.5167C34.9861 45.4566 34.4772 45.6662 34.1 46.0393L32.065 48.0659C31.9597 48.1708 31.8303 48.2483 31.6881 48.2915C31.5459 48.3347 31.3953 48.3424 31.2494 48.3139C31.1036 48.2853 30.9669 48.2214 30.8515 48.1278C30.7361 48.0341 30.6455 47.9136 30.5875 47.7768L26.2767 38.2851C26.4008 38.2759 26.5267 38.2709 26.65 38.2584C26.9976 38.2228 27.3289 38.0927 27.6079 37.8824C27.887 37.6721 28.1033 37.3894 28.2333 37.0651L28.9242 35.3359C30.5988 34.9324 32.1996 34.2685 33.6683 33.3684L35.3817 34.1001C35.435 34.1234 35.4917 34.1276 35.5483 34.1459L39.9242 44.2059ZM42.4333 20.6668C42.4258 20.7075 42.4079 20.7457 42.3813 20.7775C42.3548 20.8093 42.3204 20.8338 42.2817 20.8484L40.1467 21.7018C40.0195 21.7529 39.9069 21.8344 39.8186 21.9391C39.7302 22.0439 39.6689 22.1687 39.64 22.3026C39.2611 24.0822 38.5583 25.777 37.5667 27.3026C37.4924 27.4173 37.4474 27.5485 37.4358 27.6847C37.4242 27.8208 37.4462 27.9578 37.5 28.0834L38.4042 30.2009C38.4228 30.2394 38.4304 30.2822 38.4262 30.3248C38.4219 30.3673 38.4059 30.4078 38.38 30.4418C38.1067 30.7751 37.785 31.1268 37.38 31.5376C36.9533 31.9543 36.6 32.2759 36.2592 32.5568C36.2253 32.5797 36.1859 32.5933 36.145 32.596C36.1042 32.5988 36.0634 32.5907 36.0267 32.5726L33.9167 31.6668C33.7911 31.6133 33.6542 31.5914 33.5182 31.6032C33.3822 31.615 33.2512 31.66 33.1367 31.7343C31.6111 32.7259 29.9163 33.4287 28.1367 33.8076C28.0027 33.8365 27.8779 33.8978 27.7732 33.9861C27.6684 34.0745 27.5869 34.1871 27.5358 34.3143L26.6833 36.4468C26.668 36.4874 26.6421 36.5233 26.6082 36.5505C26.5744 36.5778 26.5338 36.5955 26.4908 36.6018C25.997 36.6484 25.501 36.6701 25.005 36.6668H24.995C24.4967 36.6697 23.9986 36.6474 23.5025 36.6001C23.4617 36.5925 23.4236 36.5746 23.3918 36.548C23.36 36.5215 23.3356 36.4872 23.3208 36.4484L22.4675 34.3134C22.4168 34.1862 22.3356 34.0734 22.2309 33.985C22.1263 33.8966 22.0014 33.8354 21.8675 33.8068C20.0877 33.4283 18.3928 32.7255 16.8675 31.7334C16.7325 31.6459 16.5751 31.5993 16.4142 31.5993C16.3004 31.5988 16.1878 31.6218 16.0833 31.6668L13.9658 32.5709C13.9277 32.5902 13.8848 32.5982 13.8423 32.5939C13.7998 32.5896 13.7594 32.5732 13.7258 32.5468C13.3925 32.2726 13.0408 31.9509 12.63 31.5468C12.2133 31.1209 11.8933 30.7684 11.61 30.4259C11.5871 30.3921 11.5736 30.3529 11.571 30.3121C11.5683 30.2714 11.5766 30.2307 11.595 30.1943L12.5 28.0834C12.5535 27.9578 12.5753 27.821 12.5635 27.685C12.5518 27.549 12.5068 27.418 12.4325 27.3034C11.4406 25.7779 10.7375 24.0831 10.3583 22.3034C10.3299 22.1694 10.2689 22.0445 10.1806 21.9397C10.0924 21.8349 9.9797 21.7534 9.85249 21.7026L7.72082 20.8476C7.68052 20.8317 7.64505 20.8056 7.61787 20.7718C7.5907 20.7381 7.57276 20.6979 7.56582 20.6551C7.52166 20.2126 7.49999 19.7259 7.49999 19.1668C7.49999 18.6076 7.52166 18.1209 7.56666 17.6668C7.57445 17.6262 7.59246 17.5883 7.61901 17.5566C7.64555 17.525 7.67974 17.5007 7.71832 17.4859L9.85332 16.6326C9.98053 16.5817 10.0932 16.5003 10.1815 16.3955C10.2697 16.2907 10.3307 16.1658 10.3592 16.0318C10.7384 14.2521 11.4414 12.5573 12.4333 11.0318C12.5078 10.9169 12.5528 10.7856 12.5644 10.6493C12.576 10.5129 12.5539 10.3758 12.5 10.2501L11.5975 8.13592C11.5787 8.09737 11.571 8.05434 11.5752 8.01165C11.5795 7.96896 11.5956 7.92831 11.6217 7.89425C11.8958 7.56092 12.2167 7.21009 12.6217 6.79842C13.0475 6.38175 13.4008 6.06175 13.7433 5.77925C13.7768 5.756 13.816 5.74232 13.8567 5.73968C13.8973 5.73704 13.938 5.74553 13.9742 5.76425L16.0833 6.66675C16.209 6.7204 16.346 6.7423 16.4822 6.73053C16.6183 6.71876 16.7495 6.67367 16.8642 6.59925C18.3895 5.60723 20.0844 4.90441 21.8642 4.52592C21.9981 4.49728 22.1229 4.43607 22.2276 4.3477C22.3322 4.25932 22.4135 4.14651 22.4642 4.01925L23.3158 1.88759C23.3312 1.84674 23.3573 1.81076 23.3913 1.78336C23.4253 1.75596 23.466 1.73815 23.5092 1.73175C24.5022 1.64342 25.5011 1.64342 26.4942 1.73175C26.5349 1.73926 26.5731 1.75716 26.6049 1.78373C26.6367 1.8103 26.6612 1.84464 26.6758 1.88342L27.5292 4.01842C27.5803 4.14554 27.6618 4.2582 27.7665 4.34653C27.8713 4.43485 27.9961 4.49616 28.13 4.52509C29.9096 4.90401 31.6044 5.6068 33.13 6.59842C33.2452 6.67397 33.3774 6.71975 33.5147 6.73168C33.652 6.7436 33.7901 6.7213 33.9167 6.66675L36.0342 5.76259C36.0726 5.74393 36.1155 5.73631 36.158 5.74057C36.2005 5.74484 36.241 5.76083 36.275 5.78675C36.6083 6.06009 36.96 6.38175 37.3708 6.78675C37.7875 7.21342 38.1092 7.56675 38.39 7.90759C38.4133 7.94131 38.4272 7.98073 38.4299 8.02166C38.4327 8.06258 38.4244 8.10351 38.4058 8.14009L37.5 10.2501C37.4465 10.3757 37.4247 10.5125 37.4364 10.6485C37.4482 10.7845 37.4932 10.9155 37.5675 11.0301C38.5591 12.5556 39.2619 14.2505 39.6408 16.0301C39.6698 16.164 39.7311 16.2888 39.8194 16.3936C39.9077 16.4983 40.0204 16.5798 40.1475 16.6309L42.28 17.4834C42.3193 17.4979 42.3542 17.5223 42.3812 17.5543C42.4082 17.5863 42.4265 17.6247 42.4342 17.6659V17.6759C42.4816 18.1714 42.5035 18.669 42.5 19.1668C42.5034 19.6676 42.4812 20.1682 42.4333 20.6668Z" fill="white"/>
  </g>
  <defs>
    <clipPath id="clip0_155_9455">
      <rect width="50" height="50" fill="white"/>
    </clipPath>
  </defs>
</svg>