<svg width="50" height="50" viewBox="0 0 50 50" fill="none" xmlns="http://www.w3.org/2000/svg">
<g id="free-icon-box-7788628" clip-path="url(#clip0_155_9433)">
<path id="Vector" d="M49.2676 21.8262H36.6211V14.502H37.8418C38.036 14.502 38.2223 14.4248 38.3597 14.2874C38.4971 14.1501 38.5742 13.9638 38.5742 13.7695V7.91016C38.5742 7.71591 38.4971 7.52961 38.3597 7.39226C38.2223 7.2549 38.036 7.17773 37.8418 7.17773H0.732422C0.538172 7.17773 0.351877 7.2549 0.214521 7.39226C0.0771656 7.52961 0 7.71591 0 7.91016L0 13.7695C0 13.9638 0.0771656 14.1501 0.214521 14.2874C0.351877 14.4248 0.538172 14.502 0.732422 14.502H1.95312V42.0898C1.95312 42.2841 2.03029 42.4704 2.16765 42.6077C2.305 42.7451 2.4913 42.8223 2.68555 42.8223H49.2676C49.4618 42.8223 49.6481 42.7451 49.7855 42.6077C49.9228 42.4704 50 42.2841 50 42.0898V22.5586C50 22.3643 49.9228 22.178 49.7855 22.0407C49.6481 21.9033 49.4618 21.8262 49.2676 21.8262ZM48.5352 26.709H45.6055V23.291H48.5352V26.709ZM40.2344 26.709H29.4922V23.291H40.2344V26.709ZM41.6992 23.291H44.1406V30.1631L43.2471 29.7158C43.1454 29.6652 43.0334 29.6389 42.9199 29.6389C42.8064 29.6389 42.6944 29.6652 42.5928 29.7158L41.6992 30.1631V23.291ZM37.1094 13.0371H23.9258V8.64258H37.1094V13.0371ZM16.1133 8.64258H22.4609V22.3496L19.6143 20.9268C19.5126 20.8762 19.4006 20.8499 19.2871 20.8499C19.1736 20.8499 19.0616 20.8762 18.96 20.9268L16.1133 22.3496V8.64258ZM1.46484 8.64258H14.6484V13.0371H1.46484V8.64258ZM3.41797 14.502H14.6484V23.5352C14.6484 23.66 14.6803 23.7827 14.7411 23.8917C14.8019 24.0007 14.8895 24.0924 14.9956 24.1581C15.1018 24.2237 15.2229 24.2611 15.3476 24.2668C15.4723 24.2725 15.5963 24.2462 15.708 24.1904L19.2871 22.4014L22.8662 24.1904C22.9677 24.2414 23.0798 24.2678 23.1934 24.2676C23.3876 24.2676 23.5739 24.1904 23.7113 24.0531C23.8486 23.9157 23.9258 23.7294 23.9258 23.5352V14.502H35.1562V21.8262H28.7598C28.5655 21.8262 28.3792 21.9033 28.2419 22.0407C28.1045 22.178 28.0273 22.3643 28.0273 22.5586V41.3574H3.41797V14.502ZM29.4922 41.3574V28.1738H40.2344V31.3477C40.2344 31.4725 40.2663 31.5952 40.327 31.7042C40.3878 31.8132 40.4754 31.9049 40.5816 31.9706C40.6877 32.0362 40.8089 32.0736 40.9335 32.0793C41.0582 32.085 41.1823 32.0587 41.2939 32.0029L42.9199 31.1895L44.5459 32.0029C44.6474 32.0539 44.7595 32.0803 44.873 32.0801C45.0673 32.0801 45.2536 32.0029 45.3909 31.8656C45.5283 31.7282 45.6055 31.5419 45.6055 31.3477V28.1738H48.5352V41.3574H29.4922Z" fill="white"/>
<path id="Vector_2" d="M43.4082 34.5215H34.6191C34.0364 34.5215 33.4775 34.753 33.0654 35.165C32.6534 35.5771 32.4219 36.136 32.4219 36.7188C32.4219 37.3015 32.6534 37.8604 33.0654 38.2725C33.4775 38.6845 34.0364 38.916 34.6191 38.916H43.4082C43.991 38.916 44.5498 38.6845 44.9619 38.2725C45.374 37.8604 45.6055 37.3015 45.6055 36.7188C45.6055 36.136 45.374 35.5771 44.9619 35.165C44.5498 34.753 43.991 34.5215 43.4082 34.5215ZM43.4082 37.4512H34.6191C34.4249 37.4512 34.2386 37.374 34.1012 37.2367C33.9639 37.0993 33.8867 36.913 33.8867 36.7188C33.8867 36.5245 33.9639 36.3382 34.1012 36.2008C34.2386 36.0635 34.4249 35.9863 34.6191 35.9863H43.4082C43.6025 35.9863 43.7887 36.0635 43.9261 36.2008C44.0635 36.3382 44.1406 36.5245 44.1406 36.7188C44.1406 36.913 44.0635 37.0993 43.9261 37.2367C43.7887 37.374 43.6025 37.4512 43.4082 37.4512Z" fill="white"/>
<path id="Vector_3" d="M19.7754 34.5215H8.05664C7.47389 34.5215 6.91501 34.753 6.50294 35.165C6.09087 35.5771 5.85938 36.136 5.85938 36.7188C5.85938 37.3015 6.09087 37.8604 6.50294 38.2725C6.91501 38.6845 7.47389 38.916 8.05664 38.916H19.7754C20.3581 38.916 20.917 38.6845 21.3291 38.2725C21.7412 37.8604 21.9727 37.3015 21.9727 36.7188C21.9727 36.136 21.7412 35.5771 21.3291 35.165C20.917 34.753 20.3581 34.5215 19.7754 34.5215ZM19.7754 37.4512H8.05664C7.86239 37.4512 7.6761 37.374 7.53874 37.2367C7.40138 37.0993 7.32422 36.913 7.32422 36.7188C7.32422 36.5245 7.40138 36.3382 7.53874 36.2008C7.6761 36.0635 7.86239 35.9863 8.05664 35.9863H19.7754C19.9696 35.9863 20.1559 36.0635 20.2933 36.2008C20.4306 36.3382 20.5078 36.5245 20.5078 36.7188C20.5078 36.913 20.4306 37.0993 20.2933 37.2367C20.1559 37.374 19.9696 37.4512 19.7754 37.4512Z" fill="white"/>
<path id="Vector_4" d="M8.05664 33.0566H13.916C14.4988 33.0566 15.0576 32.8251 15.4697 32.4131C15.8818 32.001 16.1133 31.4421 16.1133 30.8594C16.1133 30.2766 15.8818 29.7177 15.4697 29.3057C15.0576 28.8936 14.4988 28.6621 13.916 28.6621H8.05664C7.47389 28.6621 6.91501 28.8936 6.50294 29.3057C6.09087 29.7177 5.85938 30.2766 5.85938 30.8594C5.85938 31.4421 6.09087 32.001 6.50294 32.4131C6.91501 32.8251 7.47389 33.0566 8.05664 33.0566ZM8.05664 30.127H13.916C14.1103 30.127 14.2966 30.2041 14.4339 30.3415C14.5713 30.4788 14.6484 30.6651 14.6484 30.8594C14.6484 31.0536 14.5713 31.2399 14.4339 31.3773C14.2966 31.5146 14.1103 31.5918 13.916 31.5918H8.05664C7.86239 31.5918 7.6761 31.5146 7.53874 31.3773C7.40138 31.2399 7.32422 31.0536 7.32422 30.8594C7.32422 30.6651 7.40138 30.4788 7.53874 30.3415C7.6761 30.2041 7.86239 30.127 8.05664 30.127Z" fill="white"/>
</g>
<defs>
<clipPath id="clip0_155_9433">
<rect width="50" height="50" fill="white"/>
</clipPath>
</defs>
</svg>
