<svg width="166" height="44" viewBox="0 0 166 44" fill="none" xmlns="http://www.w3.org/2000/svg">
<path d="M58.3945 33.7543C58.4017 34.0369 58.3451 34.3176 58.2284 34.5779C58.1117 34.8382 57.9376 35.072 57.7177 35.2638C57.5117 35.468 57.2636 35.6301 56.9886 35.7401C56.7136 35.8502 56.4177 35.9058 56.119 35.9036H56.0628C55.7641 35.9058 55.468 35.8501 55.1929 35.7401C54.9178 35.6301 54.6695 35.468 54.4633 35.2638C54.244 35.0717 54.0705 34.8378 53.9544 34.5775C53.8383 34.3173 53.7821 34.0366 53.7897 33.7543V25.8339H43.5352V33.7543C43.5424 34.0369 43.4857 34.3178 43.3689 34.5781C43.252 34.8384 43.0777 35.0721 42.8576 35.2638C42.6516 35.468 42.4035 35.6301 42.1285 35.7401C41.8535 35.8502 41.5575 35.9058 41.2589 35.9036H41.2027C40.904 35.9059 40.6081 35.8503 40.3331 35.7402C40.0581 35.6302 39.8099 35.468 39.604 35.2638C39.384 35.072 39.2098 34.8382 39.093 34.578C38.9761 34.3177 38.9193 34.0369 38.9264 33.7543V17.3444C38.9264 14.8109 39.8795 12.6442 41.7858 10.8443C43.6916 9.05661 45.9802 8.16261 48.6515 8.16211C51.3353 8.16211 53.6301 9.05611 55.5359 10.8443C57.4417 12.6437 58.3945 14.8104 58.3945 17.3444V33.7543ZM53.7897 21.4999V17.3475C53.7897 16.0095 53.2943 14.8668 52.3034 13.9194C51.3 12.973 50.0838 12.4996 48.6548 12.4991C47.9789 12.4892 47.3081 12.6102 46.6837 12.8545C46.0593 13.0987 45.4944 13.4611 45.024 13.9194C44.0337 14.8668 43.5385 16.0095 43.5385 17.3475V21.4999H53.7897Z" fill="#FFB500"/>
<path d="M67.1419 33.7543C67.149 34.0369 67.0924 34.3176 66.9757 34.5779C66.859 34.8382 66.6849 35.072 66.4651 35.2638C66.2589 35.468 66.0106 35.6301 65.7355 35.7401C65.4604 35.8501 65.1643 35.9058 64.8655 35.9036H64.8093C64.5107 35.9058 64.2147 35.8502 63.9397 35.7401C63.6648 35.6301 63.4166 35.468 63.2106 35.2638C62.9907 35.072 62.8167 34.8382 62.7 34.5779C62.5833 34.3176 62.5266 34.0369 62.5338 33.7543V16.7046C62.5338 14.3495 63.4177 12.3368 65.1856 10.6666C66.9535 8.99641 69.0854 8.16161 71.5813 8.16211C74.5676 8.16211 76.8184 9.09741 78.334 10.9681C79.839 9.09791 82.083 8.16261 85.068 8.16211C87.565 8.16211 89.697 8.99691 91.463 10.6666C93.229 12.3363 94.113 14.349 94.115 16.7046V33.7543C94.12 34.035 94.065 34.3138 93.952 34.5735C93.839 34.8331 93.67 35.0681 93.457 35.2638C93.248 35.4692 92.997 35.6319 92.718 35.742C92.44 35.852 92.141 35.907 91.84 35.9036H91.801C91.2 35.8945 90.626 35.6645 90.201 35.2626C89.776 34.8606 89.534 34.3182 89.526 33.7505V16.7046C89.526 15.5327 89.093 14.5382 88.228 13.721C87.362 12.9038 86.308 12.4955 85.064 12.496C84.48 12.4869 83.9 12.5909 83.359 12.8015C82.819 13.0122 82.33 13.3251 81.923 13.721C81.058 14.5382 80.626 15.5327 80.626 16.7046V33.7543C80.617 34.3228 80.374 34.8656 79.948 35.2676C79.522 35.6696 78.947 35.8991 78.345 35.9074H78.308C78.006 35.9109 77.7069 35.856 77.4287 35.7459C77.1505 35.6359 76.8992 35.4731 76.6903 35.2677C76.4702 35.076 76.2959 34.8422 76.179 34.5819C76.0622 34.3216 76.0055 34.0408 76.0127 33.7582V16.7046C76.0127 15.5327 75.5802 14.5382 74.7153 13.721C73.881 12.9365 72.7515 12.4961 71.574 12.4961C70.3966 12.4961 69.2671 12.9365 68.4327 13.721C67.5667 14.5382 67.134 15.5327 67.1345 16.7046L67.1419 33.7543Z" fill="#FFB500"/>
<path d="M101.149 8.16211C101.753 8.16211 102.333 8.38841 102.76 8.79131C103.188 9.19431 103.429 9.74101 103.43 10.3114V33.7543C103.437 34.0369 103.38 34.3177 103.263 34.578C103.146 34.8382 102.972 35.072 102.752 35.2638C102.546 35.468 102.298 35.6301 102.023 35.7401C101.748 35.8502 101.452 35.9058 101.153 35.9036H101.097C100.799 35.9059 100.503 35.8503 100.228 35.7402C99.9529 35.6302 99.7039 35.468 99.4989 35.2638C99.2779 35.0721 99.1039 34.8384 98.9869 34.5781C98.8699 34.3178 98.8139 34.0369 98.8209 33.7543V10.3114C98.8219 9.74101 99.0629 9.19431 99.4899 8.79131C99.9179 8.38841 100.497 8.16211 101.101 8.16211H101.149Z" fill="#FFB500"/>
<path d="M125.134 10.347C125.138 10.6317 125.08 10.9141 124.963 11.1768C124.847 11.4395 124.675 11.6768 124.457 11.8742C124.25 12.0755 124.001 12.2345 123.726 12.3415C123.451 12.4485 123.155 12.5012 122.858 12.4963H118.269V33.7546C118.274 34.0353 118.218 34.3141 118.105 34.5738C117.992 34.8334 117.824 35.0684 117.611 35.2641C117.402 35.4694 117.15 35.6321 116.872 35.7421C116.594 35.8522 116.295 35.9072 115.993 35.9039H115.955C115.653 35.9074 115.354 35.8524 115.076 35.7424C114.798 35.6323 114.546 35.4696 114.337 35.2641C114.124 35.0684 113.956 34.8334 113.843 34.5738C113.729 34.3141 113.674 34.0353 113.679 33.7546V12.4963H109.09C108.486 12.4951 107.907 12.2677 107.481 11.8641C107.054 11.4604 106.814 10.9134 106.814 10.3432V10.3078C106.817 9.73892 107.057 9.19392 107.484 8.79192C107.91 8.38992 108.487 8.16362 109.09 8.16242H122.854C123.151 8.15752 123.447 8.21022 123.722 8.31722C123.997 8.42422 124.246 8.58322 124.453 8.78452C124.671 8.98192 124.843 9.21922 124.959 9.48192C125.076 9.74462 125.134 10.027 125.13 10.3117L125.134 10.347Z" fill="#FFB500"/>
<path d="M132.563 19.866H141.535C142.139 19.866 142.718 20.0923 143.146 20.4953C143.573 20.8983 143.814 21.4449 143.815 22.0153V22.0522C143.814 22.6226 143.573 23.1693 143.146 23.5722C142.718 23.9752 142.139 24.2015 141.535 24.2015H132.563V29.4228C132.562 29.703 132.619 29.9806 132.732 30.2397C132.845 30.4988 133.011 30.7342 133.221 30.9323C133.431 31.1304 133.68 31.2873 133.954 31.394C134.229 31.5006 134.523 31.5549 134.82 31.5537H141.535C142.139 31.5617 142.717 31.793 143.143 32.1981C143.569 32.6031 143.81 33.1497 143.815 33.7206V33.756C143.822 34.0386 143.766 34.3193 143.649 34.5796C143.532 34.8399 143.358 35.0737 143.138 35.2655C142.932 35.4697 142.684 35.6318 142.409 35.7418C142.133 35.8518 141.837 35.9075 141.539 35.9053H134.824C132.93 35.9053 131.313 35.2717 129.971 34.0044C128.63 32.7371 127.959 31.2099 127.958 29.4228V14.6447C127.958 12.8571 128.629 11.3296 129.971 10.0624C131.313 8.79507 132.931 8.16167 134.824 8.16217H141.539C141.837 8.15997 142.133 8.21567 142.409 8.32567C142.684 8.43577 142.932 8.59787 143.138 8.80197C143.358 8.99377 143.532 9.22757 143.649 9.48787C143.766 9.74817 143.822 10.029 143.815 10.3115V10.3469C143.81 10.9179 143.569 11.4644 143.143 11.8695C142.717 12.2745 142.139 12.5058 141.535 12.5139H134.82C134.523 12.5126 134.229 12.5669 133.954 12.6736C133.68 12.7802 133.431 12.9371 133.221 13.1352C133.011 13.3334 132.845 13.5687 132.732 13.8278C132.619 14.0869 132.562 14.3645 132.563 14.6447V19.866Z" fill="#FFB500"/>
<path d="M149.247 8.16244C149.85 8.16384 150.428 8.39084 150.854 8.79364C151.281 9.19644 151.521 9.74223 151.522 10.3117V18.9765H153.476C155.195 18.9765 156.656 18.408 157.859 17.2709C159.076 16.1231 159.69 14.7438 159.703 13.1331V10.3117C159.699 10.027 159.757 9.74464 159.874 9.48194C159.99 9.21934 160.162 8.98194 160.38 8.78454C160.587 8.58314 160.836 8.42404 161.111 8.31704C161.386 8.21004 161.682 8.15744 161.979 8.16244H162.035C162.639 8.16364 163.217 8.39053 163.643 8.79333C164.07 9.19613 164.31 9.74213 164.311 10.3117V13.1323C164.311 16.5542 163.082 19.1295 160.625 20.8582C161.74 21.4974 162.762 22.5807 163.69 24.1079C164.638 25.6583 165.132 27.4185 165.123 29.2085V33.7546C165.128 34.0354 165.073 34.3142 164.959 34.5738C164.846 34.8334 164.678 35.0684 164.465 35.2641C164.256 35.4696 164.004 35.6324 163.726 35.7424C163.448 35.8525 163.149 35.9074 162.847 35.9039H162.81C162.508 35.9074 162.209 35.8523 161.93 35.7423C161.652 35.6323 161.401 35.4695 161.192 35.2641C160.978 35.0684 160.81 34.8334 160.697 34.5738C160.584 34.3142 160.528 34.0354 160.533 33.7546V29.2085C160.521 27.5982 159.907 26.2187 158.69 25.0698C157.474 23.9333 156.006 23.365 154.288 23.365H151.522V33.7546C151.529 34.0372 151.472 34.318 151.356 34.5782C151.239 34.8385 151.065 35.0723 150.845 35.2641C150.639 35.4683 150.391 35.6304 150.116 35.7405C149.841 35.8505 149.545 35.9061 149.246 35.9039H149.189C148.891 35.9061 148.595 35.8504 148.32 35.7403C148.045 35.6303 147.797 35.4682 147.59 35.2641C147.371 35.0723 147.197 34.8385 147.08 34.5782C146.963 34.318 146.907 34.0372 146.914 33.7546V10.3117C146.915 9.74213 147.155 9.19613 147.581 8.79333C148.008 8.39053 148.586 8.16364 149.189 8.16244H149.247Z" fill="#FFB500"/>
<path fill-rule="evenodd" clip-rule="evenodd" d="M4.7771 8.41005L11.1346 14.4012C11.5671 14.8082 12.1528 15.0368 12.7635 15.0368C13.3741 15.0368 13.9598 14.8082 14.3923 14.4012L20.74 8.40775C22.1913 7.03745 24.6729 8.00485 24.6778 9.94565V9.95185C24.6785 10.239 24.6192 10.5234 24.5032 10.7888C24.3872 11.0542 24.2168 11.2953 24.0018 11.4983L14.3858 20.5722C13.9533 20.9792 13.3676 21.2078 12.7569 21.2078C12.1463 21.2078 11.5606 20.9792 11.1281 20.5722L1.5178 11.4983C1.0859 11.0903 0.842798 10.5372 0.841798 9.96035C0.840198 8.01245 3.3234 7.03975 4.7771 8.41005Z" fill="#FFB500"/>
<path fill-rule="evenodd" clip-rule="evenodd" d="M4.78118 19.6789L11.1387 25.6699C11.571 26.0771 12.1568 26.3058 12.7675 26.3058C13.3782 26.3058 13.964 26.0771 14.3964 25.6699L20.7441 19.6773C22.1954 18.307 24.6769 19.2744 24.6818 21.2153V21.2222C24.6826 21.5092 24.6232 21.7935 24.5072 22.0587C24.3912 22.324 24.2208 22.5649 24.0059 22.7678L14.3899 31.8417C13.9574 32.2488 13.3716 32.4773 12.761 32.4773C12.1504 32.4773 11.5646 32.2488 11.1321 31.8417L1.52178 22.7678C1.08998 22.3598 0.84718 21.8067 0.84668 21.2299C0.84508 19.2821 3.32738 18.3093 4.78118 19.6789Z" fill="#FFB500"/>
<path fill-rule="evenodd" clip-rule="evenodd" d="M4.78092 30.9679L11.1383 36.9589C11.5707 37.3662 12.1565 37.5949 12.7672 37.5949C13.3779 37.5949 13.9637 37.3662 14.3961 36.9589L20.7437 30.9663C22.1951 29.596 24.6766 30.5634 24.6815 32.5043V32.5104C24.6823 32.7974 24.6229 33.0817 24.5069 33.347C24.3909 33.6122 24.2205 33.8532 24.0055 34.0561L14.3928 43.1223C13.9603 43.5293 13.3746 43.7579 12.7639 43.7579C12.1533 43.7579 11.5676 43.5293 11.1351 43.1223L1.52482 34.0484C1.09282 33.6404 0.850017 33.0873 0.849617 32.5104C0.844717 30.5703 3.32712 29.5983 4.78092 30.9679Z" fill="#FFB500"/>
<path d="M15.0612 2.5836C15.0612 1.3822 14.0296 0.408203 12.7572 0.408203C11.4847 0.408203 10.4531 1.3822 10.4531 2.5836V8.3025C10.4531 9.5039 11.4847 10.4779 12.7572 10.4779C14.0296 10.4779 15.0612 9.5039 15.0612 8.3025V2.5836Z" fill="#FFB500"/>
</svg>
