<svg width="113" height="204" viewBox="0 0 113 204" fill="none" xmlns="http://www.w3.org/2000/svg">
<path fill-rule="evenodd" clip-rule="evenodd" d="M18.5145 37.6461L48.4247 65.8325C50.4595 67.7473 53.215 68.8228 56.0882 68.8228C58.9609 68.8228 61.7164 67.7473 63.7512 65.8325L93.6153 37.6353C100.443 31.1884 112.118 35.7398 112.142 44.8707V44.8998C112.145 46.2506 111.866 47.5886 111.32 48.8372C110.774 50.0858 109.973 51.2201 108.961 52.1752L63.7206 94.8653C61.6858 96.7801 58.9303 97.8556 56.0571 97.8556C53.1844 97.8556 50.4289 96.7801 48.3941 94.8653L3.18038 52.1752C1.14842 50.2557 0.00470835 47.6535 3.63587e-06 44.9398C-0.0075239 35.7755 11.6752 31.1992 18.5145 37.6461Z" fill="#FFB500"/>
<path fill-rule="evenodd" clip-rule="evenodd" d="M18.5339 90.6633L48.4441 118.849C50.4779 120.765 53.234 121.841 56.1071 121.841C58.9803 121.841 61.7363 120.765 63.7706 118.849L93.6347 90.6558C100.463 84.2089 112.137 88.7602 112.16 97.8916V97.9241C112.164 99.2743 111.885 100.612 111.339 101.86C110.793 103.108 109.992 104.241 108.981 105.196L63.7401 147.886C61.7053 149.801 58.9492 150.876 56.0765 150.876C53.2039 150.876 50.4478 149.801 48.413 147.886L3.19934 105.196C1.16785 103.276 0.0255494 100.674 0.023197 97.9603C0.0156695 88.7965 11.6942 84.2197 18.5339 90.6633Z" fill="#FFB500"/>
<path fill-rule="evenodd" clip-rule="evenodd" d="M18.5323 143.775L48.442 171.961C50.4764 173.877 53.2324 174.953 56.1055 174.953C58.9787 174.953 61.7347 173.877 63.769 171.961L93.6327 143.767C100.461 137.32 112.136 141.872 112.159 151.003V151.032C112.163 152.382 111.883 153.719 111.337 154.968C110.792 156.215 109.99 157.349 108.979 158.304L63.7535 200.958C61.7187 202.872 58.9632 203.948 56.09 203.948C53.2173 203.948 50.4618 202.872 48.427 200.958L3.21327 158.267C1.18084 156.348 0.0385371 153.746 0.0366552 151.032C0.0136021 141.904 11.6926 137.331 18.5323 143.775Z" fill="#FFB500"/>
<path d="M66.8982 10.2346C66.8982 4.58239 62.0448 0 56.0585 0C50.0718 0 45.2184 4.58239 45.2184 10.2346V37.1404C45.2184 42.7926 50.0718 47.375 56.0585 47.375C62.0448 47.375 66.8982 42.7926 66.8982 37.1404V10.2346Z" fill="#FFB500"/>
</svg>
